<svg xmlns="http://www.w3.org/2000/svg" viewBox="0 0 21 21" xmlns:xlink="http://www.w3.org/1999/xlink" xml:space="preserve" width="16%" height="100%"><g xmlns="http://www.w3.org/2000/svg" fill="none" fill-rule="evenodd"><path stroke="#2a2e3b" stroke-linecap="round" stroke-linejoin="round" d="M4.5 2.5h12a2 2 0 0 1 2 2v12a2 2 0 0 1-2 2h-12a2 2 0 0 1-2-2v-12a2 2 0 0 1 2-2zm-2 4h16" style="stroke: rgb(56, 21, 134);"></path><g fill="#2a2e3b"><g transform="translate(2 2)"><circle cx="8.5" cy="8.5" r="1" style="fill: rgb(56, 21, 134);"></circle><circle cx="4.5" cy="8.5" r="1" style="fill: rgb(56, 21, 134);"></circle><circle cx="12.5" cy="8.5" r="1" style="fill: rgb(56, 21, 134);"></circle></g><g transform="translate(2 2)"><circle cx="8.5" cy="12.5" r="1" style="fill: rgb(56, 21, 134);"></circle><circle cx="4.5" cy="12.5" r="1" style="fill: rgb(56, 21, 134);"></circle><circle cx="12.5" cy="12.5" r="1" style="fill: rgb(56, 21, 134);"></circle></g></g></g></svg>